<?xml version="1.0" encoding="UTF-8"?>
<!DOCTYPE svg PUBLIC "-//W3C//DTD SVG 1.1//EN" "http://www.w3.org/Graphics/SVG/1.1/DTD/svg11.dtd">
<!-- Creator: CorelDRAW -->
<svg xmlns="http://www.w3.org/2000/svg" xml:space="preserve" width="4.6477mm" height="4.4142mm" version="1.1" style="shape-rendering:geometricPrecision; text-rendering:geometricPrecision; image-rendering:optimizeQuality; fill-rule:evenodd; clip-rule:evenodd"
viewBox="0 0 1.47 1.39"
 xmlns:xlink="http://www.w3.org/1999/xlink"
 xmlns:xodm="http://www.corel.com/coreldraw/odm/2003">
 <defs>
  <style type="text/css">
   <![CDATA[
    .fil0 {fill:#4F8654;fill-rule:nonzero}
   ]]>
  </style>
 </defs>
 <g id="Слой_x0020_1">
  <metadata id="CorelCorpID_0Corel-Layer"/>
  <path class="fil0" d="M1.43 0l0.04 0.05c-0.15,0.11 -0.32,0.29 -0.5,0.52 -0.18,0.24 -0.33,0.46 -0.42,0.66l-0.08 0.05c-0.06,0.05 -0.11,0.08 -0.13,0.1 -0.01,-0.03 -0.03,-0.09 -0.06,-0.16l-0.03 -0.07c-0.04,-0.1 -0.08,-0.17 -0.12,-0.22 -0.04,-0.05 -0.08,-0.08 -0.12,-0.09 0.08,-0.08 0.15,-0.12 0.21,-0.12 0.05,0 0.11,0.07 0.18,0.22l0.03 0.07c0.12,-0.2 0.27,-0.4 0.46,-0.59 0.19,-0.19 0.37,-0.34 0.55,-0.44z"/>
 </g>
</svg>
